<svg xmlns="http://www.w3.org/2000/svg" viewBox="0 0 200 540" width="200" height="540" role="img" aria-label="X.O. placeholder full-figure art">
  <title>X.O.</title>
  <rect width="200" height="540" fill="#534AB7"/>
  <rect x="0.5" y="0.5" width="199" height="539" fill="none" stroke="#444441" stroke-width="1"/>
  <g fill="#0d0d16" opacity="0.55">
    <!-- crocodilian skull and snout -->
    <circle cx="96" cy="94" r="30"/>
    <path d="M118 80h62l6 18-6 18h-62z"/>
    <rect x="86" y="122" width="20" height="16"/>
    <!-- torso with a ridged back -->
    <path d="M62 138h70l8 160H54z"/>
    <path d="M132 150l16 10-14 14 16 12-16 14 14 14-14 12h-6z"/>
    <!-- arms -->
    <path d="M50 148h18v138H50z"/>
    <path d="M128 148h18v138h-18z"/>
    <circle cx="59" cy="292" r="12"/>
    <circle cx="137" cy="292" r="12"/>
    <!-- digitigrade legs -->
    <path d="M60 298h34l-6 120 18 80H54l14-84z"/>
    <path d="M108 298h34l6 120 14 80h-44l-6-84z"/>
    <!-- tail sweeping behind -->
    <path d="M54 300c-30 40-40 110-30 200h26c-16-86-8-148 16-186z"/>
  </g>
</svg>
